#Comment line ignore any data following # character 
#Hierarchical Translation and Rotation (.htr) file 
[Header]	
#Header keywords are followed by a single value 
FileType HTR		#Single word string
DataType HTRS		#Translation followed by rotation and scale data
FileVersion 1		#integer
NumSegments 64		#integer
NumFrames 3		#integer
DataFrameRate 30		#integer, data frame rate in this file
EulerRotationOrder ZYX
CalibrationUnits mm
RotationUnits Degrees
GlobalAxisofGravity Y
BoneLengthAxis Y
ScaleFactor 1.00
[SegmentNames&Hierarchy]
#CHILD	PARENT
Pinger_Root GLOBAL
Pelvis Pinger_Root
L_Hip Pelvis
R_Hip Pelvis
Rear_Leg01 Pelvis
Spine1 Pelvis
L_Leg01 L_Hip
L_Leg02 L_Leg01
L_Leg03 L_Leg02
L_Foot L_Leg03
L_Toe1_01 L_Foot
L_Toe2_01 L_Foot
L_Toe3_01 L_Foot
planeAlignerLeft L_Foot
L_Toe1_02 L_Toe1_01
L_Toe1_03 L_Toe1_02
L_Toe2_02 L_Toe2_01
L_Toe2_03 L_Toe2_02
L_Toe3_02 L_Toe3_01
L_Toe3_03 L_Toe3_02
planeLockWeightLeft planeAlignerLeft
R_Leg01 R_Hip
R_Leg02 R_Leg01
R_Leg03 R_Leg02
R_Foot R_Leg03
planeAlignerRight R_Foot
R_Toe1_01 R_Foot
R_Toe2_01 R_Foot
R_Toe3_01 R_Foot
planeLockWeightRight planeAlignerRight
R_Toe1_02 R_Toe1_01
R_Toe1_03 R_Toe1_02
R_Toe2_02 R_Toe2_01
R_Toe2_03 R_Toe2_02
R_Toe3_02 R_Toe3_01
R_Toe3_03 R_Toe3_02
Rear_Leg02 Rear_Leg01
Rear_Leg03 Rear_Leg02
Rear_Leg04 Rear_Leg03
Rear_Foot Rear_Leg04
planeAlignerCenter Rear_Foot
Rear_Toe1_01 Rear_Foot
Rear_Toe2_01 Rear_Foot
Rear_Toe3_01 Rear_Foot
planeLockWeightCenter planeAlignerCenter
Rear_Toe1_02 Rear_Toe1_01
Rear_Toe1_03 Rear_Toe1_02
Rear_Toe2_02 Rear_Toe2_01
Rear_Toe2_03 Rear_Toe2_02
Rear_Toe3_02 Rear_Toe3_01
Rear_Toe3_03 Rear_Toe3_02
Back_Bone Spine1
Head Spine1
Motor_Bone Back_Bone
Ping_Mechanism Back_Bone
BN_LookIK Head
bottomMouth Head
L_Mouth01 Head
L_mouthFront Head
mouthGun Head
R_Mouth01 Head
R_mouthFront Head
TopMouth Head
weapon_bone Head
[BasePosition]
#SegmentName Tx, Ty, Tz, Rx, Ry, Rz, BoneLength
Pinger_Root 0.000000 0.000000 0.000000 -90.000000 0.000000 0.000000 10.000000 
Pelvis 0.000000 0.000000 0.000000 0.000000 0.000000 0.000000 10.000000 
L_Hip 0.000000 0.000000 0.000000 0.000000 0.000000 0.000000 10.000000 
R_Hip 0.000000 0.000000 0.000000 0.000000 0.000000 0.000000 10.000000 
Rear_Leg01 0.000000 0.000000 0.000000 0.000000 0.000000 0.000000 10.000000 
Spine1 0.000000 0.000000 0.000000 0.000000 0.000000 0.000000 10.000000 
L_Leg01 0.000000 0.000000 0.000000 0.000000 0.000000 0.000000 10.000000 
L_Leg02 0.000000 0.000000 0.000000 0.000000 0.000000 0.000000 10.000000 
L_Leg03 0.000000 0.000000 0.000000 0.000000 0.000000 0.000000 10.000000 
L_Foot 0.000000 0.000000 0.000000 0.000000 0.000000 0.000000 10.000000 
L_Toe1_01 0.000000 0.000000 0.000000 0.000000 0.000000 0.000000 10.000000 
L_Toe2_01 0.000000 0.000000 0.000000 0.000000 0.000000 0.000000 10.000000 
L_Toe3_01 0.000000 0.000000 0.000000 0.000000 0.000000 0.000000 10.000000 
planeAlignerLeft 0.000000 0.000000 0.000000 0.000000 0.000000 0.000000 10.000000 
L_Toe1_02 0.000000 0.000000 0.000000 0.000000 0.000000 0.000000 10.000000 
L_Toe1_03 0.000000 0.000000 0.000000 0.000000 0.000000 0.000000 10.000000 
L_Toe2_02 0.000000 0.000000 0.000000 0.000000 0.000000 0.000000 10.000000 
L_Toe2_03 0.000000 0.000000 0.000000 0.000000 0.000000 0.000000 10.000000 
L_Toe3_02 0.000000 0.000000 0.000000 0.000000 0.000000 0.000000 10.000000 
L_Toe3_03 0.000000 0.000000 0.000000 0.000000 0.000000 0.000000 10.000000 
planeLockWeightLeft 0.000000 0.000000 0.000000 0.000000 0.000000 0.000000 10.000000 
R_Leg01 0.000000 0.000000 0.000000 0.000000 0.000000 0.000000 10.000000 
R_Leg02 0.000000 0.000000 0.000000 0.000000 0.000000 0.000000 10.000000 
R_Leg03 0.000000 0.000000 0.000000 0.000000 0.000000 0.000000 10.000000 
R_Foot 0.000000 0.000000 0.000000 0.000000 0.000000 0.000000 10.000000 
planeAlignerRight 0.000000 0.000000 0.000000 0.000000 0.000000 0.000000 10.000000 
R_Toe1_01 0.000000 0.000000 0.000000 0.000000 0.000000 0.000000 10.000000 
R_Toe2_01 0.000000 0.000000 0.000000 0.000000 0.000000 0.000000 10.000000 
R_Toe3_01 0.000000 0.000000 0.000000 0.000000 0.000000 0.000000 10.000000 
planeLockWeightRight 0.000000 0.000000 0.000000 0.000000 0.000000 0.000000 10.000000 
R_Toe1_02 0.000000 0.000000 0.000000 0.000000 0.000000 0.000000 10.000000 
R_Toe1_03 0.000000 0.000000 0.000000 0.000000 0.000000 0.000000 10.000000 
R_Toe2_02 0.000000 0.000000 0.000000 0.000000 0.000000 0.000000 10.000000 
R_Toe2_03 0.000000 0.000000 0.000000 0.000000 0.000000 0.000000 10.000000 
R_Toe3_02 0.000000 0.000000 0.000000 0.000000 0.000000 0.000000 10.000000 
R_Toe3_03 0.000000 0.000000 0.000000 0.000000 0.000000 0.000000 10.000000 
Rear_Leg02 0.000000 0.000000 0.000000 0.000000 0.000000 0.000000 10.000000 
Rear_Leg03 0.000000 0.000000 0.000000 0.000000 0.000000 0.000000 10.000000 
Rear_Leg04 0.000000 0.000000 0.000000 0.000000 0.000000 0.000000 10.000000 
Rear_Foot 0.000000 0.000000 0.000000 0.000000 0.000000 0.000000 10.000000 
planeAlignerCenter 0.000000 0.000000 0.000000 0.000000 0.000000 0.000000 10.000000 
Rear_Toe1_01 0.000000 0.000000 0.000000 0.000000 0.000000 0.000000 10.000000 
Rear_Toe2_01 0.000000 0.000000 0.000000 0.000000 0.000000 0.000000 10.000000 
Rear_Toe3_01 0.000000 0.000000 0.000000 0.000000 0.000000 0.000000 10.000000 
planeLockWeightCenter 0.000000 0.000000 0.000000 0.000000 0.000000 0.000000 10.000000 
Rear_Toe1_02 0.000000 0.000000 0.000000 0.000000 0.000000 0.000000 10.000000 
Rear_Toe1_03 0.000000 0.000000 0.000000 0.000000 0.000000 0.000000 10.000000 
Rear_Toe2_02 0.000000 0.000000 0.000000 0.000000 0.000000 0.000000 10.000000 
Rear_Toe2_03 0.000000 0.000000 0.000000 0.000000 0.000000 0.000000 10.000000 
Rear_Toe3_02 0.000000 0.000000 0.000000 0.000000 0.000000 0.000000 10.000000 
Rear_Toe3_03 0.000000 0.000000 0.000000 0.000000 0.000000 0.000000 10.000000 
Back_Bone 0.000000 0.000000 0.000000 0.000000 0.000000 0.000000 10.000000 
Head 0.000000 0.000000 0.000000 0.000000 0.000000 0.000000 10.000000 
Motor_Bone 0.000000 0.000000 0.000000 0.000000 0.000000 0.000000 10.000000 
Ping_Mechanism 0.000000 0.000000 0.000000 0.000000 0.000000 0.000000 10.000000 
BN_LookIK 0.000000 0.000000 0.000000 0.000000 0.000000 0.000000 10.000000 
bottomMouth 0.000000 0.000000 0.000000 0.000000 0.000000 0.000000 10.000000 
L_Mouth01 0.000000 0.000000 0.000000 0.000000 0.000000 0.000000 10.000000 
L_mouthFront 0.000000 0.000000 0.000000 0.000000 0.000000 0.000000 10.000000 
mouthGun 0.000000 0.000000 0.000000 0.000000 0.000000 0.000000 10.000000 
R_Mouth01 0.000000 0.000000 0.000000 0.000000 0.000000 0.000000 10.000000 
R_mouthFront 0.000000 0.000000 0.000000 0.000000 0.000000 0.000000 10.000000 
TopMouth 0.000000 0.000000 0.000000 0.000000 0.000000 0.000000 10.000000 
weapon_bone 0.000000 0.000000 0.000000 0.000000 0.000000 0.000000 10.000000 
#Beginning of Data. Separated by tabs
#Fr	Tx	Ty	Tz	Rx	Ry	Rz	SF
[Pinger_Root]
31 -3888.887939 0.000000 0.000000 -0.000075 -0.000000 -0.000020 3888.887939
32 -4018.517578 0.000000 0.000000 -0.000075 -0.000000 -0.000020 4018.517578
33 -4148.146973 0.000000 0.000000 -0.000075 -0.000000 -0.000020 4148.146973
[Pelvis]
31 -449.966675 224.173065 5149.950684 52.803101 -76.802170 15.476516 5174.428711
32 -451.672546 282.660431 5181.847168 53.787155 -78.001389 14.862574 5209.169434
33 -456.076599 335.787842 5211.755371 54.947220 -79.197830 14.071705 5242.437500
[L_Hip]
31 5.766392 125.831482 872.656799 -178.250168 -81.786369 87.376007 881.701050
32 5.766392 125.831482 872.656799 -178.250168 -81.786369 87.376007 881.701050
33 5.766392 125.831482 872.656799 -178.250168 -81.786369 87.376007 881.701050
[R_Hip]
31 5.765438 125.836372 -872.654907 -1.748770 81.786041 87.376961 881.699829
32 5.765438 125.836372 -872.654907 -1.748770 81.786041 87.376961 881.699829
33 5.765438 125.836372 -872.654907 -1.748770 81.786041 87.376961 881.699829
[Rear_Leg01]
31 -192.298416 -925.602966 -0.001907 -153.671539 20.185986 -153.454025 945.367432
32 -192.298416 -925.602966 -0.001907 -153.010452 18.729218 -152.597382 945.367432
33 -192.298416 -925.602966 -0.001907 -152.667358 17.441910 -152.248718 945.367432
[Spine1]
31 290.604584 5.007505 0.000477 -59.582405 17.540228 25.587664 290.647736
32 290.604584 5.007505 0.000477 -59.767761 18.694921 24.808357 290.647736
33 290.604584 5.007505 0.000477 -59.971088 19.847080 24.019564 290.647736
[L_Leg01]
31 761.932007 -0.002384 -0.069261 95.790886 7.163988 -106.058281 761.932068
32 761.932007 -0.002384 -0.069261 97.398338 1.488942 -105.154999 761.932068
33 761.932007 -0.002384 -0.069261 100.295929 -9.830997 -102.036034 761.932068
[L_Leg02]
31 1441.140503 -0.000954 -0.000715 -1.359103 0.644430 -107.530891 1441.140503
32 1441.140503 -0.000954 -0.000715 -1.186776 0.583546 -114.605232 1441.140503
33 1441.140503 -0.000954 -0.000715 -0.212677 0.167322 -126.090469 1441.140503
[L_Leg03]
31 1686.963989 -0.000715 -0.000954 0.054254 -0.013052 95.382324 1686.963989
32 1686.963989 -0.000715 -0.000954 0.054228 -0.013159 95.609528 1686.963989
33 1686.963989 -0.000715 -0.000954 0.050810 -0.010003 96.752579 1686.963989
[L_Foot]
31 3041.570068 -30.715107 11.297464 -12.320751 16.088076 62.084732 3041.746094
32 3041.570068 -30.715107 11.297464 -14.483907 15.794324 60.730682 3041.746094
33 3041.570068 -30.715107 11.297464 -17.235516 15.125751 61.682026 3041.746094
[L_Toe1_01]
31 -188.216690 -224.732346 -21.137953 88.109337 0.547675 -116.355774 293.899567
32 -188.216690 -224.732346 -21.137953 88.150635 0.358857 -112.378578 293.899567
33 -188.216690 -224.732346 -21.137953 88.210999 -0.519470 -125.873039 293.899567
[L_Toe2_01]
31 200.746536 -219.926590 148.838394 -74.803802 -9.627950 -60.054234 332.896027
32 200.746536 -219.926590 148.838394 -74.300171 -8.357120 -63.966545 332.896027
33 200.746536 -219.926590 148.838394 -73.687164 -6.532743 -69.435966 332.896027
[L_Toe3_01]
31 188.832520 -219.859131 -191.078659 -109.589897 11.798404 -61.879601 347.140900
32 188.832520 -219.859131 -191.078659 -110.146744 10.218309 -65.598938 347.140900
33 188.832520 -219.859131 -191.078659 -110.857056 7.932932 -70.852341 347.140900
[planeAlignerLeft]
31 -92.570366 -816.552429 7.130421 0.000000 -90.000000 -90.001900 821.813782
32 -82.111969 -814.675842 7.684932 0.000000 -90.000000 -90.001900 818.839539
33 -65.409096 -808.321289 7.159124 0.000000 -90.000000 -90.001900 810.995056
[L_Toe1_02]
31 413.761139 0.000477 0.000000 0.001661 0.070897 0.001661 413.761139
32 413.761139 0.000477 0.000000 0.001416 -21.982801 0.001416 413.761139
33 413.761139 0.000477 0.000000 0.001395 -24.573400 0.001395 413.761139
[L_Toe1_03]
31 464.317322 0.000358 -0.000089 0.001673 -0.448396 -0.003292 464.317322
32 464.317322 0.000358 -0.000089 0.000888 29.326992 -0.003164 464.317322
33 464.317322 0.000358 -0.000089 0.006800 70.123856 0.006800 464.317322
[L_Toe2_02]
31 342.235809 -0.000477 0.000238 0.001184 -74.555931 0.001184 342.235809
32 342.235809 -0.000477 0.000238 0.001182 -76.426025 0.001182 342.235809
33 342.235809 -0.000477 0.000238 0.001180 -77.652336 0.001180 342.235809
[L_Toe2_03]
31 420.210846 -0.000715 0.000000 -179.956268 88.551659 -179.952774 420.210846
32 420.210846 -0.000715 0.000000 -179.993118 82.363831 -179.989624 420.210846
33 420.210846 -0.000715 0.000000 -179.996475 77.517067 -179.992966 420.210846
[L_Toe3_02]
31 329.270111 0.000954 0.000000 0.001180 -78.454506 0.001180 329.270111
32 329.270111 0.000954 0.000000 0.001178 -80.137375 0.001178 329.270111
33 329.270111 0.000954 0.000000 0.001177 -81.279579 0.001177 329.270111
[L_Toe3_03]
31 439.137451 -0.001907 0.000954 -179.986053 85.806839 -179.982529 439.137451
32 439.137451 -0.001907 0.000954 -179.995193 79.947968 -179.991684 439.137451
33 439.137451 -0.001907 0.000954 -179.997269 75.320351 -179.993744 439.137451
[planeLockWeightLeft]
31 0.001192 0.097961 0.076141 -0.011826 -0.004376 0.005620 0.124078
32 -0.000038 0.098076 0.076132 -0.011826 -0.004376 0.005620 0.124157
33 -0.000076 0.098190 0.076122 -0.011826 -0.004376 0.005620 0.124241
[R_Leg01]
31 761.455627 -0.001907 -0.000358 135.260666 -20.389023 71.310829 761.455688
32 761.455627 -0.001907 -0.000358 136.379303 -18.386160 72.831741 761.455688
33 761.455627 -0.001907 -0.000358 137.514496 -17.288109 73.780319 761.455688
[R_Leg02]
31 1441.140625 0.000000 -0.000238 0.207892 0.022277 -83.614113 1441.140625
32 1441.140625 0.000000 -0.000238 0.208350 0.028766 -83.342354 1441.140625
33 1441.140625 0.000000 -0.000238 0.208151 0.028324 -83.866798 1441.140625
[R_Leg03]
31 1686.963989 0.000954 0.001431 -0.049482 0.013148 96.115845 1686.963989
32 1686.963989 0.000954 0.001431 -0.047754 0.011625 96.872704 1686.963989
33 1686.963989 0.000954 0.001431 -0.046047 0.010079 97.629547 1686.963989
[R_Foot]
31 3041.560059 -30.531288 -11.204481 -13.532619 -14.765044 48.332771 3041.734131
32 3041.560059 -30.531288 -11.204481 -12.687774 -13.595594 49.719223 3041.734131
33 3041.560059 -30.531288 -11.204481 -11.817837 -12.445990 51.117199 3041.734131
[planeAlignerRight]
31 -37.720177 -573.077454 27.593393 0.000000 -89.960434 -90.005180 574.979980
32 -12.888527 -577.073425 25.744949 0.000000 -89.960434 -90.005180 577.791138
33 11.943121 -581.069336 23.896500 0.000000 -89.960434 -90.005180 581.683167
[R_Toe1_01]
31 -188.383347 -224.864899 21.052242 90.722977 0.566339 -166.975677 294.101532
32 -188.383347 -224.864899 21.052242 90.711014 0.678428 -167.686966 294.101532
33 -188.383347 -224.864899 21.052242 90.697632 0.790355 -168.398254 294.101532
[R_Toe2_01]
31 200.637817 -220.002121 -148.787384 -100.879723 12.451764 -39.995327 332.857574
32 200.637817 -220.002121 -148.787384 -100.960030 11.994239 -40.703789 332.857574
33 200.637817 -220.002121 -148.787384 -101.034424 11.535776 -41.410419 332.857574
[R_Toe3_01]
31 188.606735 -220.092957 191.126343 -74.575195 -18.991833 -43.262054 347.192566
32 188.606735 -220.092957 191.126343 -74.573799 -18.228966 -43.597862 347.192566
33 188.606735 -220.092957 191.126343 -74.497231 -17.381977 -44.323494 347.192566
[planeLockWeightRight]
31 999.999695 -0.000253 0.076301 -0.011823 -0.004379 -0.000027 999.999695
32 999.999695 -0.000242 0.076295 -0.011823 -0.004379 -0.000027 999.999695
33 999.999695 -0.000232 0.076288 -0.011823 -0.004379 -0.000027 999.999695
[R_Toe1_02]
31 413.762085 0.000477 -0.000119 0.001410 -22.724047 0.001410 413.762085
32 413.762085 0.000477 -0.000119 0.001416 -21.997307 0.001416 413.762085
33 413.762085 0.000477 -0.000119 0.001422 -21.270540 0.001422 413.762085
[R_Toe1_03]
31 464.317810 0.000000 0.001088 0.013194 79.793114 0.013194 464.317810
32 464.317810 0.000000 0.001088 0.004142 83.155586 0.005895 464.317810
33 464.317810 0.000000 0.001088 -0.020666 86.517830 -0.017167 464.317810
[R_Toe2_02]
31 342.234741 -0.000954 0.000238 -0.002333 -79.254845 -0.002333 342.234741
32 342.234741 -0.000954 0.000238 -0.002335 -78.535095 -0.002335 342.234741
33 342.234741 -0.000954 0.000238 -0.002336 -77.815308 -0.002336 342.234741
[R_Toe2_03]
31 420.210846 0.000715 -0.000268 -179.995178 68.303505 -179.998718 420.210846
32 420.210846 0.000715 -0.000268 -179.994522 72.112656 -179.998062 420.210846
33 420.210846 0.000715 -0.000268 -179.993546 75.926025 -179.997070 420.210846
[R_Toe3_02]
31 329.270355 -0.000477 -0.000954 0.001176 -82.411957 0.001176 329.270355
32 329.270355 -0.000477 -0.000954 0.001177 -81.738487 0.001177 329.270355
33 329.270355 -0.000477 -0.000954 0.001177 -81.064987 0.001177 329.270355
[R_Toe3_03]
31 439.137939 0.000238 0.001431 -179.998535 69.569237 -179.994980 439.137939
32 439.137939 0.000238 0.001431 -179.997910 72.886131 -179.994370 439.137939
33 439.137939 0.000238 0.001431 -179.996979 76.205757 -179.993454 439.137939
[Rear_Leg02]
31 1162.777710 -0.029802 0.005960 2.077682 -3.192830 -129.959793 1162.777710
32 1162.777710 -0.029802 0.005960 1.828152 -3.420987 -124.920280 1162.777710
33 1162.777710 -0.029802 0.005960 1.539267 -3.676357 -119.453606 1162.777710
[Rear_Leg03]
31 607.192505 -0.013351 -0.073195 0.010335 -0.005421 71.711906 607.192505
32 607.192505 -0.013351 -0.073195 0.010407 -0.005281 70.163116 607.192505
33 607.192505 -0.013351 -0.073195 0.010476 -0.005139 68.614601 607.192505
[Rear_Leg04]
31 995.874512 -0.020504 -0.011921 -0.041365 -0.016061 74.921089 995.874573
32 995.874512 -0.020504 -0.011921 -0.041108 -0.016354 71.029305 995.874573
33 995.874512 -0.020504 -0.011921 -0.040830 -0.016629 67.119354 995.874573
[Rear_Foot]
31 3096.176270 -0.067472 -0.041425 -12.841372 73.141273 160.411316 3096.176270
32 3096.176270 -0.067472 -0.041425 -12.945957 73.118134 162.029739 3096.176270
33 3096.176270 -0.067472 -0.041425 -12.929250 72.833435 163.730743 3096.176270
[planeAlignerCenter]
31 1.136322 62.425041 -768.510132 0.000009 0.000003 -179.999985 771.042114
32 1.135864 66.433479 -754.793457 0.000009 0.000003 -179.999985 757.712280
33 1.135406 70.441902 -741.076843 0.000009 0.000003 -179.999985 744.418030
[Rear_Toe1_01]
31 0.653352 83.966492 -371.173737 0.063107 25.943668 90.033691 380.553192
32 0.653352 83.966492 -371.173737 0.061741 25.097176 90.033157 380.553192
33 0.653352 83.966492 -371.173737 0.060398 24.250687 90.032677 380.553192
[Rear_Toe2_01]
31 178.200760 -294.826019 -362.060547 0.877723 51.169765 -70.179924 499.765686
32 178.200760 -294.826019 -362.060547 0.916131 50.295765 -70.075020 499.765686
33 178.200760 -294.826019 -362.060547 0.951393 49.421665 -69.972885 499.765686
[Rear_Toe3_01]
31 -153.359680 -308.780914 -362.060852 -1.115634 51.159779 -112.267334 499.952881
32 -153.359680 -308.780914 -362.060852 -1.159862 50.289848 -112.384247 499.952881
33 -153.359680 -308.780914 -362.060852 -1.200576 49.419819 -112.498070 499.952881
[planeLockWeightCenter]
31 1000.000000 0.000173 0.076145 -0.011814 -0.004373 -0.000015 1000.000000
32 1000.000000 0.000161 0.076135 -0.011814 -0.004373 -0.000015 1000.000000
33 1000.000000 0.000148 0.076125 -0.011814 -0.004373 -0.000015 1000.000000
[Rear_Toe1_02]
31 379.707825 0.194073 0.000477 -0.000767 -33.624729 0.000838 379.707855
32 379.707825 0.194073 0.000477 -0.000767 -33.624729 0.000838 379.707855
33 379.707825 0.194073 0.000477 -0.000767 -33.624729 0.000838 379.707855
[Rear_Toe1_03]
31 500.129700 0.165701 0.000119 -0.000356 69.763977 0.001775 500.129761
32 500.129700 0.165701 0.000119 0.002045 70.176895 0.003465 500.129761
33 500.129700 0.165701 0.000119 0.004533 70.589844 0.005243 500.129761
[Rear_Toe2_02]
31 340.494507 0.000238 -0.000954 0.001177 -81.945145 0.001177 340.494507
32 340.494507 0.000238 -0.000954 0.001176 -82.862709 0.001176 340.494507
33 340.494507 0.000238 -0.000954 0.001175 -83.779877 0.001175 340.494507
[Rear_Toe2_03]
31 433.103577 0.000000 0.000238 179.927795 88.135017 179.927795 433.103546
32 433.103577 0.000000 0.000238 179.964996 86.154778 179.964996 433.103546
33 433.103577 0.000000 0.000238 179.976898 84.176949 179.976898 433.103546
[Rear_Toe3_02]
31 340.494141 -0.000358 -0.000477 0.001177 -81.883331 0.001177 340.494171
32 340.494141 -0.000358 -0.000477 0.001176 -82.701927 0.001176 340.494171
33 340.494141 -0.000358 -0.000477 0.001176 -83.520645 0.001176 340.494171
[Rear_Toe3_03]
31 433.103577 0.001431 -0.000238 -179.961670 88.354919 -179.958160 433.103546
32 433.103577 0.001431 -0.000238 -179.983521 86.384750 -179.980026 433.103546
33 433.103577 0.001431 -0.000238 -179.989960 84.417038 -179.986450 433.103546
[Back_Bone]
31 1312.175781 -701.934692 0.000954 2.870127 0.499462 -84.636963 1488.125488
32 1312.175781 -701.934692 0.000954 2.883559 1.259011 -84.453972 1488.125488
33 1312.175781 -701.934692 0.000954 2.899423 2.018476 -84.270721 1488.125488
[Head]
31 1406.159424 809.709290 0.001431 -5.145266 3.068534 1.691291 1622.625488
32 1406.159424 809.709290 0.001431 -4.970563 3.279780 1.289345 1622.625488
33 1406.159424 809.709290 0.001431 -4.797306 3.492253 0.887944 1622.625488
[Motor_Bone]
31 1158.364380 -417.834747 0.000477 -1.440882 0.000167 -105.983208 1231.419434
32 1158.364380 -417.834747 0.000477 -1.029635 1.419330 -104.575363 1231.419434
33 1158.364380 -417.834747 0.000477 -0.583231 2.827924 -103.156067 1231.419434
[Ping_Mechanism]
31 1224.690552 -428.125366 63.600197 0.000103 -0.000053 82.120995 1298.923828
32 1222.246460 -428.622620 58.224224 0.000103 -0.000053 82.120995 1296.531372
33 1219.802246 -429.119843 52.848259 0.000103 -0.000053 82.120995 1294.161621
[BN_LookIK]
31 193.241119 1380.371704 -0.002861 0.000000 89.965736 -31.038179 1393.832153
32 193.241119 1380.371704 -0.002861 0.000000 89.965736 -31.038179 1393.832153
33 193.241119 1380.371704 -0.002861 0.000000 89.965736 -31.038179 1393.832153
[bottomMouth]
31 -435.092926 615.759399 -0.000954 -0.000022 0.000016 73.527184 753.966492
32 -435.092926 615.759399 -0.000954 -0.000022 0.000016 73.527184 753.966492
33 -435.092926 615.759399 -0.000954 -0.000022 0.000016 73.527184 753.966492
[L_Mouth01]
31 554.440979 7.658243 838.222046 150.204178 23.759130 109.605339 1005.027161
32 554.440979 7.658243 838.222046 150.204178 23.759130 109.605339 1005.027161
33 554.440979 7.658243 838.222046 150.204178 23.759130 109.605339 1005.027161
[L_mouthFront]
31 551.629089 934.514771 339.150421 0.000081 2.804060 79.119301 1136.941284
32 551.629089 934.514771 339.150421 0.000081 2.804060 79.119301 1136.941284
33 551.629089 934.514771 339.150421 0.000081 2.804060 79.119301 1136.941284
[mouthGun]
31 55.332661 1627.420898 0.000000 0.000023 0.000009 -11.038128 1628.361328
32 55.332661 1627.420898 0.000000 0.000023 0.000009 -11.038128 1628.361328
33 55.332661 1627.420898 0.000000 0.000023 0.000009 -11.038128 1628.361328
[R_Mouth01]
31 554.442383 7.659197 -838.223938 29.795891 -23.759109 109.605331 1005.029541
32 554.442383 7.659197 -838.223938 29.795891 -23.759109 109.605331 1005.029541
33 554.442383 7.659197 -838.223938 29.795891 -23.759109 109.605331 1005.029541
[R_mouthFront]
31 551.629089 934.514282 -339.151367 0.000029 -2.803930 79.119133 1136.941162
32 551.629089 934.514282 -339.151367 0.000029 -2.803930 79.119133 1136.941162
33 551.629089 934.514282 -339.151367 0.000029 -2.803930 79.119133 1136.941162
[TopMouth]
31 461.269867 -56.106091 -0.008583 -0.000059 -0.000268 92.025169 464.669525
32 461.269867 -56.106091 -0.008583 -0.000059 -0.000268 92.025169 464.669525
33 461.269867 -56.106091 -0.008583 -0.000059 -0.000268 92.025169 464.669525
[weapon_bone]
31 -987.239868 1448.372803 0.001431 0.000000 89.965736 -31.038221 1752.833740
32 -987.239868 1448.372803 0.001431 0.000000 89.965736 -31.038221 1752.833740
33 -987.239868 1448.372803 0.001431 0.000000 89.965736 -31.038221 1752.833740
